<svg xmlns="http://www.w3.org/2000/svg" viewBox="0 0 153.48 153.39"><defs><style>.cls-1{fill:#84dbff;}.cls-1,.cls-3,.cls-4,.cls-5{fill-rule:evenodd;}.cls-2{fill:#8fcc43;stroke:#7e5c62;stroke-miterlimit:10;stroke-width:0.23px;}.cls-3{fill:#674b45;}.cls-4{fill:#b59644;}.cls-5{fill:#fff;}.cls-6{fill:#fefefe;}</style></defs><g id="Capa_2" data-name="Capa 2"><g id="_65" data-name="65"><path class="cls-1" d="M153.48,76.65A76.74,76.74,0,1,1,76.74,0a76.73,76.73,0,0,1,76.74,76.65Z"/><rect class="cls-2" x="35.01" y="44.62" width="83.37" height="62.65"/><path class="cls-3" d="M117,43.22H33.61v61.06a1.45,1.45,0,1,0,2.89,0V46.12H117v58.16a1.5,1.5,0,1,0,3,0V43.22h-3Z"/><path class="cls-4" d="M123,110.16H30.53a1.48,1.48,0,0,1-1.5-1.49v-2.89a1.49,1.49,0,0,1,1.5-1.5H123a1.48,1.48,0,0,1,1.49,1.5v2.89a1.47,1.47,0,0,1-1.49,1.49Z"/><path class="cls-5" d="M54.43,104.28v-3a1.47,1.47,0,0,0-1.49-1.5H44a1.47,1.47,0,0,0-1.49,1.5v3"/><path class="cls-6" d="M104.56,73.57v-.66h-1.4l1-1.68a.72.72,0,0,0,.19-.46c.09-.1.09-.28.09-.56a1.05,1.05,0,0,0-.09-.47,1.1,1.1,0,0,1-.28-.38.74.74,0,0,0-.38-.18,1.1,1.1,0,0,0-.56-.1,1.5,1.5,0,0,0-.65.1,1.52,1.52,0,0,0-.47.37v1c0-.09.1-.09.19-.28s.09-.19.19-.28.28-.19.37-.28.19-.09.37-.09.28.09.47.18a.76.76,0,0,1,.19.38c0,.18,0,.28-.1.37a.57.57,0,0,1-.09.37L102,73.57ZM56.2,76.18H51.07a2.32,2.32,0,0,1,1-1.12,2.55,2.55,0,0,1,1.68-.47,3,3,0,0,1,.93.1,1.82,1.82,0,0,1,.75.37,3.69,3.69,0,0,1,.56.56,1.36,1.36,0,0,1,.18.56Zm2.24,2a4.35,4.35,0,0,0-.18-2.52,3.43,3.43,0,0,0-1-1.68,4.6,4.6,0,0,0-1.59-1,6.66,6.66,0,0,0-1.86-.28,7.09,7.09,0,0,0-2,.38,4.35,4.35,0,0,0-1.5,1.12,4.4,4.4,0,0,0-1.12,1.49,4.2,4.2,0,0,0-.37,1.87,5,5,0,0,0,.37,2.05,6.93,6.93,0,0,0,1.12,1.78A5.49,5.49,0,0,0,52,82.44a5.24,5.24,0,0,0,2.06.37,7.15,7.15,0,0,0,3.82-1.12V79.63a4.21,4.21,0,0,1-1.58.85,4.35,4.35,0,0,1-2,.37,5.08,5.08,0,0,1-1.22-.19,8.66,8.66,0,0,1-1-.56,3.57,3.57,0,0,1-.75-.93,3.35,3.35,0,0,1-.47-1Zm12.42-1.87V74.69h-9v1.58Zm0,4.77V79.35h-9V81Zm18.86,1.58V77a4.32,4.32,0,0,0-.28-1.59,14.08,14.08,0,0,0-.84-1.21,6.88,6.88,0,0,0-1.31-.93A3.77,3.77,0,0,0,85.8,73a4.43,4.43,0,0,0-1.87.37,15.19,15.19,0,0,0-1.68,1,6.62,6.62,0,0,0-1.31-1A3,3,0,0,0,79.36,73a5.68,5.68,0,0,0-1.31.18,4.69,4.69,0,0,0-1.21.47V73.1H74.78v9.52h2.06V75.9a1.87,1.87,0,0,1,.93-.56,2.93,2.93,0,0,1,1.31-.28,2.55,2.55,0,0,1,.84.19,1.44,1.44,0,0,1,.65.37,1.73,1.73,0,0,1,.47.65,1,1,0,0,1,.18.75v5.6h2.06V76.37a3.23,3.23,0,0,1,1-.94,1.9,1.9,0,0,1,1.22-.37,2.55,2.55,0,0,1,.84.19,1.82,1.82,0,0,1,.75.37,2.15,2.15,0,0,1,.65,1.4v5.6ZM101.39,82V79.63a3.47,3.47,0,0,1-1.4.85,3.8,3.8,0,0,1-1.78.37A2.57,2.57,0,0,1,97,80.57a1.67,1.67,0,0,1-.84-.56,3.15,3.15,0,0,1-.65-.94,2.51,2.51,0,0,1-.28-1.21,1.84,1.84,0,0,1,.28-1,2.31,2.31,0,0,1,.65-.94,2.83,2.83,0,0,1,.84-.65,2.53,2.53,0,0,1,1.21-.19,5.36,5.36,0,0,1,1.78.28,5.25,5.25,0,0,1,1.4.93V73.85a11.32,11.32,0,0,0-1.49-.66A10.78,10.78,0,0,0,98.21,73a4.63,4.63,0,0,0-2,.37,8.59,8.59,0,0,0-1.58,1,8.59,8.59,0,0,0-1,1.58,4.2,4.2,0,0,0-.37,1.87,4.57,4.57,0,0,0,.37,2,9,9,0,0,0,1,1.59,5.59,5.59,0,0,0,1.58,1,4.49,4.49,0,0,0,2,.37,5.14,5.14,0,0,0,1.69-.19,10.06,10.06,0,0,0,1.49-.65Z"/></g></g></svg>