<svg xmlns="http://www.w3.org/2000/svg" viewBox="0 0 159.65 159.64"><defs><style>.cls-1{fill:#47ab3d;}.cls-1,.cls-2,.cls-3,.cls-4,.cls-5,.cls-6,.cls-7,.cls-9{fill-rule:evenodd;}.cls-2{fill:#fad02d;}.cls-3{fill:#f6b527;}.cls-4{fill:#fff;}.cls-5{fill:#6d6b6b;}.cls-6{fill:#696666;}.cls-7,.cls-8{fill:#2b3b4e;}.cls-9{fill:#807d7d;}</style></defs><g id="Capa_2" data-name="Capa 2"><g id="_65" data-name="65"><path class="cls-1" d="M159.65,79.82a79.83,79.83,0,1,0-79.83,79.82,80,80,0,0,0,79.83-79.82Z"/><path class="cls-2" d="M79.82,26.7A53.07,53.07,0,0,1,109,124v-.09a52.27,52.27,0,0,1-58.53,0V124A53.07,53.07,0,0,1,79.82,26.7Z"/><path class="cls-3" d="M79.82,32.67a47.06,47.06,0,1,1-47,47.06,47.1,47.1,0,0,1,47-47.06Z"/><path class="cls-4" d="M79.82,36A43.69,43.69,0,1,1,36.13,79.73,43.75,43.75,0,0,1,79.82,36Z"/><polygon class="cls-5" points="78.33 46.31 79.82 44.62 81.23 46.31 81.23 79.73 78.33 79.73 78.33 46.31"/><polygon class="cls-6" points="106.81 78.05 108.48 79.54 106.81 80.94 79.82 81.22 79.82 78.33 106.81 78.05"/><path class="cls-7" d="M79,82.62a3.43,3.43,0,0,0,1.4-6.72,3.54,3.54,0,0,0-4.1,2.71,3.45,3.45,0,0,0,2.7,4Z"/><polygon class="cls-7" points="44.72 97.19 42.29 97.19 43.79 95.32 79.36 78.79 80.2 80.66 44.72 97.19"/><rect class="cls-8" x="78.8" y="37.9" width="2.05" height="4.01"/><rect class="cls-8" x="38" y="78.7" width="4.01" height="2.06"/><rect class="cls-8" x="78.8" y="117.54" width="2.05" height="4.01"/><rect class="cls-8" x="117.63" y="78.7" width="3.92" height="2.06"/><polygon class="cls-9" points="66.75 40.8 67.5 40.61 68.25 42.94 67.5 43.13 66.75 40.8"/><polygon class="cls-9" points="55.36 46.77 55.92 46.31 57.42 48.36 56.76 48.73 55.36 46.77 55.36 46.77"/><polygon class="cls-9" points="46.31 55.92 46.78 55.36 48.73 56.76 48.36 57.41 46.31 55.92 46.31 55.92"/><polygon class="cls-9" points="40.61 67.41 40.8 66.75 43.23 67.5 42.95 68.25 40.61 67.41"/><polygon class="cls-9" points="40.8 92.8 40.61 92.15 42.95 91.31 43.23 92.05 40.8 92.8"/><polygon class="cls-9" points="46.78 104.19 46.31 103.63 48.36 102.14 48.73 102.79 46.78 104.19 46.78 104.19"/><polygon class="cls-9" points="55.92 113.25 55.36 112.78 56.76 110.81 57.42 111.19 55.92 113.25 55.92 113.25"/><polygon class="cls-9" points="67.5 118.94 66.75 118.75 67.5 116.42 68.25 116.61 67.5 118.94"/><polygon class="cls-9" points="92.89 118.75 92.15 118.94 91.4 116.61 92.06 116.42 92.89 118.75"/><polygon class="cls-9" points="104.28 112.78 103.63 113.25 102.23 111.29 102.79 110.81 104.28 112.78 104.28 112.78"/><polygon class="cls-9" points="113.25 103.63 112.78 104.19 110.82 102.79 111.29 102.14 113.25 103.63 113.25 103.63"/><polygon class="cls-9" points="118.94 92.15 118.76 92.8 116.42 92.05 116.61 91.31 118.94 92.15"/><polygon class="cls-9" points="118.76 66.75 118.94 67.41 116.61 68.25 116.42 67.5 118.76 66.75"/><polygon class="cls-9" points="112.78 55.36 113.25 55.92 111.29 57.41 110.82 56.76 112.78 55.36 112.78 55.36"/><polygon class="cls-9" points="103.63 46.31 104.28 46.77 102.79 48.73 102.23 48.36 103.63 46.31 103.63 46.31"/><polygon class="cls-9" points="92.15 40.61 92.89 40.8 92.06 43.13 91.4 42.94 92.15 40.61"/></g></g></svg>