<svg xmlns="http://www.w3.org/2000/svg" viewBox="0 0 861.89 861.89"><defs><style>.cls-1{fill:#bec7cc;}.cls-2{fill:#264b60;}</style></defs><g id="Capa_2" data-name="Capa 2"><g id="Objects"><circle class="cls-1" cx="430.95" cy="430.95" r="430.95"/><path class="cls-2" d="M268,403.9V577.56a43.56,43.56,0,0,0,43.57,43.57H550.32a43.57,43.57,0,0,0,43.58-43.57V403.9a43.57,43.57,0,0,0-43.58-43.57H532.76V297.09a101.82,101.82,0,0,0-203.63,0v63.24H311.56A43.56,43.56,0,0,0,268,403.9Zm140,71.75a22.95,22.95,0,1,1,32.06,21.07l4.13,23.12a6.78,6.78,0,0,1-6.68,8H424.39a6.8,6.8,0,0,1-6.69-8l4.14-23.12A23,23,0,0,1,408,475.65ZM356.18,297.09a74.77,74.77,0,1,1,149.53,0v63.24H356.18Z"/></g></g></svg>