<svg xmlns="http://www.w3.org/2000/svg" viewBox="0 0 159.65 159.65"><defs><style>.cls-1{fill:#be2f0c;}.cls-1,.cls-10,.cls-2,.cls-3,.cls-4,.cls-5,.cls-7{fill-rule:evenodd;}.cls-2{fill:#f6b52f;}.cls-3{fill:#f3b403;}.cls-4{fill:#f3b503;}.cls-5{fill:#fbc902;}.cls-6{fill:#f8e163;}.cls-7{fill:#fad03d;}.cls-8{fill:#e6e9ee;}.cls-9{fill:#bb7710;}.cls-10{fill:#fefefe;}</style></defs><g id="Capa_2" data-name="Capa 2"><g id="_65" data-name="65"><path class="cls-1" d="M159.65,79.82a79.83,79.83,0,1,0-79.83,79.83,80,80,0,0,0,79.83-79.83Z"/><path class="cls-2" d="M65.54,102.88H94.29c-4.48-5-6.71-11.57-7.84-17.27a53.1,53.1,0,0,1-1.21-11.76H74.5a56.08,56.08,0,0,1-1.12,11.76c-1,5.7-3.27,12.23-7.84,17.27Z"/><path class="cls-3" d="M64.23,77.12a1.37,1.37,0,0,1-.84-.19L51.63,70.86A21,21,0,0,1,41.08,57.7L37.72,44.44a7.52,7.52,0,0,1,1.4-6.54,7.7,7.7,0,0,1,6.07-3h19a1.92,1.92,0,0,1,0,3.83h-19a3.93,3.93,0,0,0-3.08,1.49,3.78,3.78,0,0,0-.75,3.27l3.36,13.25A17,17,0,0,0,53.31,67.5l11.86,6.07a1.94,1.94,0,0,1,.74,2.52,1.77,1.77,0,0,1-1.68,1Z"/><path class="cls-4" d="M95.42,77.12a2,2,0,0,1-1.69-1,1.91,1.91,0,0,1,.84-2.52l11.77-6.07a16.75,16.75,0,0,0,8.59-10.74l3.36-13.25a3.77,3.77,0,0,0-.65-3.27,4,4,0,0,0-3.09-1.49H95.42a1.92,1.92,0,0,1,0-3.83h19.13a7.84,7.84,0,0,1,6.07,3,7.51,7.51,0,0,1,1.31,6.54L118.57,57.7a20.54,20.54,0,0,1-10.46,13.16L96.35,76.93a1.65,1.65,0,0,1-.93.19Z"/><path class="cls-5" d="M79.82,87.67h0a23.18,23.18,0,0,1-23.15-23l-.28-35.85h46.87L103,64.7v1.21h0a1.1,1.1,0,0,1-.1.56h0V67h0c0,.19-.09.38-.09.56a4.31,4.31,0,0,1-.19,1.12v.1h0c0,.18-.09.37-.09.56-.09.56-.28,1-.37,1.58H102c0,.19-.09.38-.09.56h0A23.16,23.16,0,0,1,79.82,87.67Z"/><rect class="cls-6" x="64.23" y="101.95" width="31.18" height="3.64"/><path class="cls-7" d="M56.39,110.16h46.87a5.52,5.52,0,0,0-5.51-5.5H62a5.6,5.6,0,0,0-5.6,5.5Z"/><rect class="cls-8" x="49.2" y="109.88" width="61.33" height="20.63"/><rect class="cls-9" x="66.75" y="115.77" width="26.23" height="8.78"/><path class="cls-10" d="M69,121.09a.92.92,0,0,0,.84-.94.84.84,0,0,0-.84-.84.93.93,0,0,0-.93.84,1,1,0,0,0,.93.94Z"/><path class="cls-10" d="M91,121.09a.92.92,0,0,0,.84-.94.84.84,0,0,0-1.68,0,.92.92,0,0,0,.84.94Z"/></g></g></svg>