<svg xmlns="http://www.w3.org/2000/svg" viewBox="0 0 159.65 159.65"><defs><style>.cls-1{fill:#27a4ca;}.cls-1,.cls-2,.cls-3,.cls-4,.cls-5,.cls-6{fill-rule:evenodd;}.cls-2{fill:#ef2523;}.cls-3{fill:#fff;}.cls-4{fill:#fad027;}.cls-5{fill:#f6b53a;}.cls-6{fill:#fb510d;}</style></defs><g id="Capa_2" data-name="Capa 2"><g id="_65" data-name="65"><path class="cls-1" d="M159.65,79.82a79.83,79.83,0,1,0-79.83,79.83,80,80,0,0,0,79.83-79.83Z"/><path class="cls-2" d="M88.22,51H71.14L49.29,6.07a79.72,79.72,0,0,1,15-4.48L79.82,33.52l1,2h0l.93,2,4.67,9.62.94,2h0Z"/><path class="cls-3" d="M88.69,67.13H71a1.21,1.21,0,0,1-1.21-.94L66.19,55A5.05,5.05,0,0,1,67,50.41a5.11,5.11,0,0,1,4.11-2H88.5a5.29,5.29,0,0,1,4.21,2A4.77,4.77,0,0,1,93.45,55l-3.36,11.2a1.63,1.63,0,0,1-1.4.94Zm-16.9-2.62h16l3.08-10.27A2.16,2.16,0,0,0,90.47,52a2.38,2.38,0,0,0-2.06-1H71.14a2.75,2.75,0,0,0-2,1,2.37,2.37,0,0,0-.38,2.24Z"/><path class="cls-4" d="M123.89,104.28h0a6.81,6.81,0,0,0,0-9.71h0a6.68,6.68,0,0,1-1.4-7.56h0A7,7,0,0,0,118.66,78h0a6.8,6.8,0,0,1-4.29-6.35h0a7,7,0,0,0-6.91-6.91h0A7.1,7.1,0,0,1,101,60.4h0a6.89,6.89,0,0,0-9-3.82h0a7.07,7.07,0,0,1-7.56-1.4h0a6.75,6.75,0,0,0-9.8,0h0a6.71,6.71,0,0,1-7.57,1.4h0a6.88,6.88,0,0,0-9,3.82h0a6.81,6.81,0,0,1-6.44,4.3h0a7,7,0,0,0-6.91,6.91h0A6.9,6.9,0,0,1,40.52,78h0A6.89,6.89,0,0,0,36.78,87h0a7.11,7.11,0,0,1-1.49,7.56h0a6.81,6.81,0,0,0,0,9.71h0a6.88,6.88,0,0,1,1.49,7.56h0a6.9,6.9,0,0,0,3.74,9.06h0a6.8,6.8,0,0,1,4.29,6.35h0a7,7,0,0,0,6.91,6.91h0a7,7,0,0,1,6.44,4.29h0a6.88,6.88,0,0,0,9,3.83h0a7.06,7.06,0,0,1,7.57,1.4h0a6.77,6.77,0,0,0,9.8,0h0a6.7,6.7,0,0,1,7.56-1.4h0a6.89,6.89,0,0,0,9-3.83h0a7,7,0,0,1,6.44-4.29h0a7,7,0,0,0,6.91-6.91h0a6.89,6.89,0,0,1,4.29-6.35h0a7,7,0,0,0,3.83-9.06h0a6.82,6.82,0,0,1,1.4-7.56Z"/><path class="cls-5" d="M112.41,99.43a32.82,32.82,0,1,0-32.77,32.86,32.83,32.83,0,0,0,32.77-32.86Z"/><path class="cls-6" d="M110.26,6.07,88.41,51H71.33l.93-1.86.84-2,4.76-9.62.94-2,1-2L95.32,1.59a80.51,80.51,0,0,1,14.94,4.48Z"/></g></g></svg>