<svg xmlns="http://www.w3.org/2000/svg" viewBox="0 0 159.65 159.65"><defs><style>.cls-1{fill:#f98424;}.cls-1,.cls-2,.cls-3,.cls-4,.cls-5,.cls-6{fill-rule:evenodd;}.cls-2{fill:#324a5e;}.cls-3{fill:#ced5e0;}.cls-4{fill:#e6e9ee;}.cls-5{fill:#fff;}.cls-6{fill:#d0d2d4;}</style></defs><g id="Capa_2" data-name="Capa 2"><g id="_65" data-name="65"><path class="cls-1" d="M159.65,79.82a79.83,79.83,0,1,0-79.83,79.83,80,80,0,0,0,79.83-79.83Z"/><path class="cls-2" d="M79.82,54.24l-54.33-9a.72.72,0,0,0-.84.75v69.55c0,.37.18.75.56.75l54.61,8.87Z"/><polygon class="cls-3" points="79.82 56.86 27.54 48.27 27.54 114.18 79.82 122.77 79.82 56.86"/><path class="cls-4" d="M32.68,44.81c15-4.29,32.95.1,47.14,12.14v65.82c-14.37-2.43-37.9-4.76-52.28-8.59V48.27Z"/><path class="cls-5" d="M32.68,44.81c15-4.29,32.95.1,47.14,12.14v65.82c-14.19-12.14-32.11-11.58-46.77-9.9l-.37-65.35Z"/><path class="cls-2" d="M79.82,54.24l54.25-9A.75.75,0,0,1,135,46v69.55a.73.73,0,0,1-.65.75L79.82,125.2Z"/><polygon class="cls-3" points="79.82 56.86 132.11 48.27 132.11 114.18 79.82 122.77 79.82 56.86"/><path class="cls-4" d="M127,44.81C111.85,40.52,94,44.91,79.82,57v65.82c14.38-2.43,37.81-4.76,52.29-8.59V48.27Z"/><path class="cls-5" d="M127,44.81C111.85,40.52,94,44.91,79.82,57v65.82c14.2-12.14,32-11.58,46.78-9.9L127,47.52Z"/><polygon class="cls-6" points="38.47 76.93 38.47 76.93 75.25 83.65 75.25 84.86 38.47 78.05 38.47 76.93"/><polygon class="cls-6" points="38.47 79.26 38.47 79.26 75.25 86.08 75.25 87.29 38.47 80.48 38.47 79.26"/><polygon class="cls-6" points="38.47 81.69 38.47 81.69 75.25 88.5 75.25 89.63 38.47 82.9 38.47 81.69"/><polygon class="cls-6" points="38.47 84.12 38.47 84.12 75.25 90.93 75.25 92.05 38.47 85.33 38.47 84.12"/><polygon class="cls-6" points="38.47 86.55 38.47 86.55 51.16 88.88 51.16 90.09 38.47 87.76 38.47 86.55"/><polygon class="cls-6" points="38.47 61.15 38.47 61.15 75.25 67.87 75.25 69.09 38.47 62.36 38.47 61.15"/><polygon class="cls-6" points="38.47 63.58 38.47 63.58 75.25 70.3 75.25 71.51 38.47 64.7 38.47 63.58"/><polygon class="cls-6" points="38.47 65.91 38.47 65.91 75.25 72.73 75.25 73.94 38.47 67.13 38.47 65.91"/><polygon class="cls-6" points="38.47 68.34 38.47 68.34 75.25 75.15 75.25 76.37 38.47 69.55 38.47 68.34"/><polygon class="cls-6" points="38.47 70.77 38.47 70.77 54.62 73.75 54.62 74.97 38.47 71.98 38.47 70.77"/><polygon class="cls-6" points="38.47 58.72 38.47 58.72 75.25 65.54 75.25 66.66 38.47 59.94 38.47 58.72"/><polygon class="cls-6" points="38.47 74.5 75.25 81.22 75.25 82.44 38.47 75.72 38.47 74.5"/><polygon class="cls-6" points="122.39 74.5 122.39 74.5 85.61 83.65 85.61 84.86 122.39 75.72 122.39 74.5"/><polygon class="cls-6" points="122.39 76.93 122.39 76.93 85.61 86.08 85.61 87.29 122.39 78.05 122.39 76.93"/><polygon class="cls-6" points="122.39 79.26 122.39 79.26 85.61 88.5 85.61 89.63 122.39 80.48 122.39 79.26"/><polygon class="cls-6" points="122.39 81.69 122.39 81.69 85.61 90.93 85.61 92.05 122.39 82.9 122.39 81.69"/><polygon class="cls-6" points="122.39 84.12 122.39 84.12 109.7 87.29 109.7 88.5 122.39 85.33 122.39 84.12"/><polygon class="cls-6" points="122.39 58.72 122.39 58.72 85.61 67.87 85.61 69.09 122.39 59.94 122.39 58.72"/><polygon class="cls-6" points="122.39 61.15 122.39 61.15 85.61 70.3 85.61 71.51 122.39 62.36 122.39 61.15"/><polygon class="cls-6" points="122.39 63.58 122.39 63.58 85.61 72.73 85.61 73.94 122.39 64.7 122.39 63.58"/><polygon class="cls-6" points="122.39 65.91 122.39 65.91 85.61 75.15 85.61 76.37 122.39 67.13 122.39 65.91"/><polygon class="cls-6" points="122.39 68.34 122.39 68.34 106.25 72.36 106.25 73.57 122.39 69.55 122.39 68.34"/><polygon class="cls-6" points="122.39 56.3 122.39 56.3 85.61 65.54 85.61 66.66 122.39 57.51 122.39 56.3"/><polygon class="cls-6" points="122.39 72.08 85.61 81.22 85.61 82.44 122.39 73.29 122.39 72.08"/><polygon class="cls-6" points="122.39 89.63 122.39 89.63 85.61 98.78 85.61 99.99 122.39 90.84 122.39 89.63"/><polygon class="cls-6" points="122.39 92.05 122.39 92.05 85.61 101.2 85.61 102.42 122.39 93.27 122.39 92.05"/><polygon class="cls-6" points="122.39 94.48 122.39 94.48 85.61 103.63 85.61 104.84 122.39 95.69 122.39 94.48"/><polygon class="cls-6" points="122.39 96.91 122.39 96.91 85.61 106.06 85.61 107.27 122.39 98.03 122.39 96.91"/><polygon class="cls-6" points="122.39 99.24 122.39 99.24 106.25 103.25 106.25 104.47 122.39 100.46 122.39 99.24"/><polygon class="cls-6" points="122.39 87.2 122.39 87.2 85.61 96.44 85.61 97.56 122.39 88.41 122.39 87.2"/></g></g></svg>