<svg xmlns="http://www.w3.org/2000/svg" viewBox="0 0 153.48 153.39"><defs><style>.cls-1{fill:#fad025;}.cls-1,.cls-2,.cls-3,.cls-4{fill-rule:evenodd;}.cls-2{fill:#2b3b4e;}.cls-3{fill:#324a5e;}.cls-4{fill:#f62b41;}</style></defs><g id="Capa_2" data-name="Capa 2"><g id="_65" data-name="65"><path class="cls-1" d="M153.48,76.65A76.74,76.74,0,1,1,76.74,0a76.74,76.74,0,0,1,76.74,76.65Z"/><path class="cls-2" d="M114.93,71.05l.93,21.66c-20.45,20.82-57.23,18.58-74.22.65l-.09-21.19L76.74,86.92l38.19-15.87Z"/><polygon class="cls-3" points="15.69 67.13 76.74 45.84 137.8 67.13 76.74 88.41 15.69 67.13"/><path class="cls-4" d="M77.49,61.34,36.41,72.45a.65.65,0,0,0-.56.74l-.19,18.3A3.63,3.63,0,0,1,37.9,95a3.49,3.49,0,0,1-3.45,3.64A3.55,3.55,0,0,1,31,95a3.67,3.67,0,0,1,2-3.36l.28-20a1.21,1.21,0,0,1,.93-1.4L75.9,59.1c1.49-.47,3,1.21,1.59,2.24Z"/></g></g></svg>