<svg xmlns="http://www.w3.org/2000/svg" xmlns:xlink="http://www.w3.org/1999/xlink" viewBox="0 0 900.4 1221.97"><defs><style>.cls-1{mask:url(#mask);filter:url(#luminosity-noclip-6);}.cls-10,.cls-12,.cls-2,.cls-26,.cls-28,.cls-4,.cls-6,.cls-8{mix-blend-mode:multiply;}.cls-2{fill:url(#radial-gradient);}.cls-3{mask:url(#mask-2);filter:url(#luminosity-noclip-7);}.cls-4{fill:url(#radial-gradient-2);}.cls-5{mask:url(#mask-3);filter:url(#luminosity-noclip-8);}.cls-6{fill:url(#radial-gradient-3);}.cls-7{mask:url(#mask-4);filter:url(#luminosity-noclip-9);}.cls-8{fill:url(#radial-gradient-4);}.cls-9{mask:url(#mask-5);filter:url(#luminosity-noclip-10);}.cls-10{fill:url(#radial-gradient-5);}.cls-11{isolation:isolate;}.cls-13{fill:#fff;}.cls-14{fill:#f1f1f1;}.cls-15{fill:#e2e2e2;}.cls-16{fill:#d4d4d4;}.cls-17{fill:#c5c5c5;}.cls-18{fill:#b7b7b7;}.cls-19{fill:#a8a8a8;}.cls-20{fill:#9a9a9a;}.cls-21{fill:#8b8b8b;}.cls-22{fill:#7d7d7d;}.cls-23{fill:#6e6e6e;}.cls-24{fill:#606060;}.cls-25{mask:url(#mask-6);}.cls-26{fill:url(#radial-gradient-6);}.cls-27{mask:url(#mask-7);}.cls-28{fill:url(#radial-gradient-7);}.cls-29{mask:url(#mask-8);}.cls-30{fill:url(#radial-gradient-8);}.cls-31{mask:url(#mask-9);}.cls-32{mix-blend-mode:screen;fill:url(#radial-gradient-9);}.cls-33{mask:url(#mask-10);}.cls-34{fill:url(#radial-gradient-10);}.cls-35{fill:#e0343d;}.cls-36{fill:#f99653;}.cls-37{filter:url(#luminosity-noclip-5);}.cls-38{filter:url(#luminosity-noclip-4);}.cls-39{filter:url(#luminosity-noclip-3);}.cls-40{filter:url(#luminosity-noclip-2);}.cls-41{filter:url(#luminosity-noclip);}</style><filter id="luminosity-noclip" x="30.71" y="-8543.36" width="803.98" height="32766" filterUnits="userSpaceOnUse" color-interpolation-filters="sRGB"><feFlood flood-color="#fff" result="bg"/><feBlend in="SourceGraphic" in2="bg"/></filter><mask id="mask" x="30.71" y="-8543.36" width="803.98" height="32766" maskUnits="userSpaceOnUse"><g class="cls-41"/></mask><radialGradient id="radial-gradient" cx="420.26" cy="-353.04" r="1627.61" gradientUnits="userSpaceOnUse"><stop offset="0.62"/><stop offset="0.75" stop-color="#020202"/><stop offset="0.8" stop-color="#090909"/><stop offset="0.84" stop-color="#151515"/><stop offset="0.87" stop-color="#262626"/><stop offset="0.9" stop-color="#3c3c3c"/><stop offset="0.92" stop-color="#585858"/><stop offset="0.94" stop-color="#797979"/><stop offset="0.96" stop-color="#9f9f9f"/><stop offset="0.98" stop-color="#cbcbcb"/><stop offset="1" stop-color="#f9f9f9"/><stop offset="1" stop-color="#fff"/></radialGradient><filter id="luminosity-noclip-2" x="30.71" y="-8543.36" width="803.98" height="32766" filterUnits="userSpaceOnUse" color-interpolation-filters="sRGB"><feFlood flood-color="#fff" result="bg"/><feBlend in="SourceGraphic" in2="bg"/></filter><mask id="mask-2" x="30.71" y="-8543.36" width="803.98" height="32766" maskUnits="userSpaceOnUse"><g class="cls-40"/></mask><radialGradient id="radial-gradient-2" cx="436.37" cy="1069.38" r="1166.29" gradientUnits="userSpaceOnUse"><stop offset="0.62"/><stop offset="0.71" stop-color="#020202"/><stop offset="0.76" stop-color="#0a0a0a"/><stop offset="0.8" stop-color="#181818"/><stop offset="0.84" stop-color="#2c2c2c"/><stop offset="0.88" stop-color="#464646"/><stop offset="0.91" stop-color="#656565"/><stop offset="0.94" stop-color="#8a8a8a"/><stop offset="0.96" stop-color="#b6b6b6"/><stop offset="0.99" stop-color="#e5e5e5"/><stop offset="1" stop-color="#fff"/></radialGradient><filter id="luminosity-noclip-3" x="45.52" y="-8543.36" width="789.18" height="32766" filterUnits="userSpaceOnUse" color-interpolation-filters="sRGB"><feFlood flood-color="#fff" result="bg"/><feBlend in="SourceGraphic" in2="bg"/></filter><mask id="mask-3" x="45.52" y="-8543.36" width="789.18" height="32766" maskUnits="userSpaceOnUse"><g class="cls-39"/></mask><radialGradient id="radial-gradient-3" cx="-3.68" cy="30.18" r="1294.99" gradientUnits="userSpaceOnUse"><stop offset="0.1"/><stop offset="1" stop-color="#fff"/></radialGradient><filter id="luminosity-noclip-4" x="30.71" y="-8543.36" width="789.18" height="32766" filterUnits="userSpaceOnUse" color-interpolation-filters="sRGB"><feFlood flood-color="#fff" result="bg"/><feBlend in="SourceGraphic" in2="bg"/></filter><mask id="mask-4" x="30.71" y="-8543.36" width="789.18" height="32766" maskUnits="userSpaceOnUse"><g class="cls-38"/></mask><radialGradient id="radial-gradient-4" cx="250.32" cy="358.27" r="1102.98" gradientUnits="userSpaceOnUse"><stop offset="0"/><stop offset="0.01" stop-color="#090909"/><stop offset="0.05" stop-color="#373737"/><stop offset="0.09" stop-color="#626262"/><stop offset="0.14" stop-color="#888"/><stop offset="0.2" stop-color="#a8a8a8"/><stop offset="0.25" stop-color="#c4c4c4"/><stop offset="0.32" stop-color="#dadada"/><stop offset="0.4" stop-color="#ebebeb"/><stop offset="0.49" stop-color="#f6f6f6"/><stop offset="0.63" stop-color="#fdfdfd"/><stop offset="1" stop-color="#fff"/></radialGradient><filter id="luminosity-noclip-5" x="30.69" y="-8543.36" width="1.63" height="32766" filterUnits="userSpaceOnUse" color-interpolation-filters="sRGB"><feFlood flood-color="#fff" result="bg"/><feBlend in="SourceGraphic" in2="bg"/></filter><mask id="mask-5" x="30.69" y="-8543.36" width="1.63" height="32766" maskUnits="userSpaceOnUse"><g class="cls-37"/></mask><radialGradient id="radial-gradient-5" cx="-1254.18" cy="30.18" r="1295.26" gradientTransform="matrix(-1, 0, 0, 1, -384.67, 0)" xlink:href="#radial-gradient-3"/><filter id="luminosity-noclip-6" x="30.71" y="638.13" width="803.98" height="518.13" filterUnits="userSpaceOnUse" color-interpolation-filters="sRGB"><feFlood flood-color="#fff" result="bg"/><feBlend in="SourceGraphic" in2="bg"/></filter><mask id="mask-6" x="30.71" y="638.13" width="803.98" height="518.13" maskUnits="userSpaceOnUse"><g class="cls-1"><path class="cls-2" d="M504.76,638.17q-237,.06-474,.17v475.89c0,41.19,31.12,42,31.12,42H803.58s31.11-.84,31.11-42V638.13Z"/></g></mask><radialGradient id="radial-gradient-6" cx="420.26" cy="-353.04" r="1627.61" gradientUnits="userSpaceOnUse"><stop offset="0.62" stop-color="#fff"/><stop offset="0.79" stop-color="#fdfdfd"/><stop offset="0.85" stop-color="#f6f6f6"/><stop offset="0.9" stop-color="#eaeaea"/><stop offset="0.94" stop-color="#d9d9d9"/><stop offset="0.97" stop-color="#c3c3c3"/><stop offset="1" stop-color="#ababab"/></radialGradient><filter id="luminosity-noclip-7" x="30.71" y="30.69" width="803.98" height="561.86" filterUnits="userSpaceOnUse" color-interpolation-filters="sRGB"><feFlood flood-color="#fff" result="bg"/><feBlend in="SourceGraphic" in2="bg"/></filter><mask id="mask-7" x="30.71" y="30.69" width="803.98" height="561.86" maskUnits="userSpaceOnUse"><g class="cls-3"><path class="cls-4" d="M30.71,592.26l203,.14q292.48.17,585,.15h16V72.73c0-41.19-31.11-42-31.11-42H61.83s-31.12.85-31.12,42V592.26Z"/></g></mask><radialGradient id="radial-gradient-7" cx="436.37" cy="1069.38" r="1166.29" gradientUnits="userSpaceOnUse"><stop offset="0.62" stop-color="#fff"/><stop offset="0.75" stop-color="#fdfdfd"/><stop offset="0.82" stop-color="#f5f5f5"/><stop offset="0.88" stop-color="#e7e7e7"/><stop offset="0.93" stop-color="#d3d3d3"/><stop offset="0.98" stop-color="#bababa"/><stop offset="1" stop-color="#ababab"/></radialGradient><filter id="luminosity-noclip-8" x="45.52" y="30.69" width="789.18" height="1125.57" filterUnits="userSpaceOnUse" color-interpolation-filters="sRGB"><feFlood flood-color="#fff" result="bg"/><feBlend in="SourceGraphic" in2="bg"/></filter><mask id="mask-8" x="45.52" y="30.69" width="789.18" height="1125.57" maskUnits="userSpaceOnUse"><g class="cls-5"><path class="cls-6" d="M833.07,72.66v1040c0,41.13-31.15,42-31.15,42H59.42a31.66,31.66,0,0,1-13.9-4.49,32,32,0,0,0,16.31,6.12H803.58s31.12-.85,31.12-42V72.72c0-41.19-31.12-42-31.12-42h-1.66S833.07,31.53,833.07,72.66Z"/></g></mask><radialGradient id="radial-gradient-8" cx="-3.68" cy="30.18" r="1294.99" gradientUnits="userSpaceOnUse"><stop offset="0.1" stop-color="#fff"/><stop offset="1" stop-color="#ababab"/></radialGradient><filter id="luminosity-noclip-9" x="30.71" y="30.69" width="789.18" height="1125.57" filterUnits="userSpaceOnUse" color-interpolation-filters="sRGB"><feFlood flood-color="#fff" result="bg"/><feBlend in="SourceGraphic" in2="bg"/></filter><mask id="mask-9" x="30.71" y="30.69" width="789.18" height="1125.57" maskUnits="userSpaceOnUse"><g class="cls-7"><path class="cls-8" d="M32.34,1114.29V74.3c0-41.14,31.15-42,31.15-42H806a31.66,31.66,0,0,1,13.9,4.49,32,32,0,0,0-16.31-6.12H61.83s-31.12.85-31.12,42v1041.5c0,41.19,31.12,42,31.12,42h1.66S32.34,1155.42,32.34,1114.29Z"/></g></mask><radialGradient id="radial-gradient-9" cx="250.32" cy="358.27" r="1102.98" gradientUnits="userSpaceOnUse"><stop offset="0" stop-color="#fff"/><stop offset="0.14" stop-color="#fff"/><stop offset="1" stop-color="#fff"/></radialGradient><filter id="luminosity-noclip-10" x="30.69" y="112.02" width="1.63" height="970.54" filterUnits="userSpaceOnUse" color-interpolation-filters="sRGB"><feFlood flood-color="#fff" result="bg"/><feBlend in="SourceGraphic" in2="bg"/></filter><mask id="mask-10" x="30.69" y="112.02" width="1.63" height="970.54" maskUnits="userSpaceOnUse"><g class="cls-9"><path class="cls-10" d="M30.69,112v970.55c.54-2,1.07-3.94,1.62-5.9V129.61Q31.48,120.82,30.69,112Z"/></g></mask><radialGradient id="radial-gradient-10" cx="-1254.18" cy="30.18" r="1295.26" gradientTransform="matrix(-1, 0, 0, 1, -384.67, 0)" xlink:href="#radial-gradient-8"/></defs><g class="cls-11"><g id="Capa_2" data-name="Capa 2"><g id="Objects"><g class="cls-12"><path class="cls-13" d="M839.42,35H96c-24.51.66-61,20.58-61,72.71v38.07q0,.62,0,1.23v970.54q0,.64,0,1.29v30.38c0,52.12,36.46,72,61,72.7l.83,0H838.59l.84,0a62.26,62.26,0,0,0,46-24.14c9.91-12.78,14.94-29.13,14.94-48.57V107.73C900.4,55.6,863.93,35.69,839.42,35Z"/><path class="cls-14" d="M836.24,31.84H93.66l-.83,0c-24.51.72-61,20.57-61,72.71v38.07c0,.4,0,.81,0,1.22v970.54c0,.43,0,.87,0,1.29v30.38c0,52.13,36.46,72,61,72.71H836.24a62.37,62.37,0,0,0,46-24.14c9.91-12.79,14.94-29.13,14.94-48.58V104.55C897.22,52.42,860.75,32.57,836.24,31.84Z"/><path class="cls-15" d="M833.06,28.66H89.65c-24.51.73-61,20.58-61,72.71v38.07c0,.41,0,.82,0,1.23v970.54c0,.43,0,.87,0,1.29v30.38c0,52.13,36.47,72,61,72.71H833.06a62.39,62.39,0,0,0,46-24.14c9.91-12.79,14.93-29.13,14.93-48.58V101.37C894,49.24,857.57,29.39,833.06,28.66Z"/><path class="cls-16" d="M829.88,25.48l-.84,0H86.46c-24.51.73-61,20.58-61,72.71v38.07q0,.62,0,1.23V1108q0,.65,0,1.29v30.38c0,52.12,36.46,72,61,72.71H829.88a62.36,62.36,0,0,0,46-24.15c9.91-12.78,14.94-29.13,14.94-48.57V98.19C890.85,46.06,854.38,26.21,829.88,25.48Z"/><path class="cls-17" d="M826.69,22.29H84.11l-.83,0C58.77,23,22.3,42.88,22.3,95v38.07c0,.41,0,.81,0,1.22v970.54c0,.43,0,.87,0,1.3v30.37c0,52.13,36.46,72,61,72.71l.83,0H825.86l.84,0a62.37,62.37,0,0,0,46-24.14c9.91-12.78,14.94-29.13,14.94-48.58V95C887.67,42.87,851.2,23,826.69,22.29Z"/><path class="cls-18" d="M823.51,19.11H80.1c-24.51.74-61,20.58-61,72.72V129.9c0,.4,0,.81,0,1.22v970.54c0,.43,0,.87,0,1.3v30.37c0,52.13,36.47,72,61,72.71H823.51a62.37,62.37,0,0,0,46-24.14c9.91-12.79,14.93-29.13,14.93-48.58V91.82C884.48,39.69,848,19.84,823.51,19.11Z"/><path class="cls-19" d="M820.33,15.93l-.84,0H76.91c-24.51.73-61,20.58-61,72.72v38.06q0,.62,0,1.23v970.54q0,.64,0,1.29v30.38c0,52.12,36.46,72,61,72.71H820.33a62.4,62.4,0,0,0,46-24.14c9.9-12.79,14.93-29.13,14.93-48.58V88.64C881.3,36.51,844.83,16.66,820.33,15.93Z"/><path class="cls-20" d="M817.14,12.74H74.56l-.83,0c-24.51.73-61,20.58-61,72.71v38.07c0,.41,0,.81,0,1.23v970.53c0,.43,0,.87,0,1.3V1127c0,52.13,36.46,72,61,72.71H817.15a62.39,62.39,0,0,0,46-24.13c9.91-12.8,14.94-29.14,14.94-48.58V85.45C878.12,33.32,841.65,13.47,817.14,12.74Z"/><path class="cls-21" d="M814,9.56H70.55c-24.51.73-61,20.58-61,72.72v38.07c0,.4,0,.81,0,1.22v970.54c0,.43,0,.87,0,1.29v30.38c0,52.13,36.46,72,61,72.71H814a62.37,62.37,0,0,0,46-24.14c9.91-12.79,14.94-29.13,14.94-48.58V82.27C874.94,30.14,838.47,10.29,814,9.56Z"/><path class="cls-22" d="M810.78,6.38H67.37c-24.51.73-61,20.58-61,72.71v38.07q0,.61,0,1.23v970.54q0,.64,0,1.29v30.38c0,52.13,36.47,72,61,72.71H810.78a62.4,62.4,0,0,0,46-24.14c9.91-12.79,14.93-29.14,14.93-48.58V79.08C871.75,27,835.28,7.11,810.78,6.38Z"/><path class="cls-23" d="M807.59,3.2l-.83,0H64.18c-24.51.73-61,20.58-61,72.71V114q0,.61,0,1.23v970.54q0,.64,0,1.29v30.37c0,52.13,36.46,72,61,72.71l.83,0H806.76l.84,0a62.3,62.3,0,0,0,46-24.14c9.91-12.78,14.94-29.13,14.94-48.57V75.9C868.57,23.77,832.1,3.92,807.59,3.2Z"/><path class="cls-24" d="M804.41,0H61.83L61,0C36.49.68,0,20.59,0,72.73V110.8c0,.4,0,.81,0,1.22v970.54c0,.43,0,.87,0,1.3v30.37c0,52.13,36.46,72,61,72.71H804.41a62.3,62.3,0,0,0,46-24.14c9.91-12.78,14.94-29.13,14.94-48.58V72.72C865.39,20.59,828.92.68,804.41,0Z"/></g><path class="cls-13" d="M804.41,0H61.83L61,0C36.49.68,0,20.59,0,72.73V110.8c0,.4,0,.81,0,1.22v970.54c0,.43,0,.87,0,1.3v30.37c0,52.13,36.46,72,61,72.71H804.41a62.3,62.3,0,0,0,46-24.14c9.91-12.78,14.94-29.13,14.94-48.58V72.72C865.39,20.59,828.92.68,804.41,0Z"/><path class="cls-13" d="M803.58,30.69H61.83s-31.12.85-31.12,42v1041.5c0,41.19,31.12,42,31.12,42H803.58s31.11-.84,31.11-42V72.73C834.69,31.54,803.58,30.69,803.58,30.69Z"/><g class="cls-25"><path class="cls-26" d="M504.76,638.17q-237,.06-474,.17v475.89c0,41.19,31.12,42,31.12,42H803.58s31.11-.84,31.11-42V638.13Z"/></g><g class="cls-27"><path class="cls-28" d="M30.71,592.26l203,.14q292.48.17,585,.15h16V72.73c0-41.19-31.11-42-31.11-42H61.83s-31.12.85-31.12,42V592.26Z"/></g><g class="cls-29"><path class="cls-30" d="M833.07,72.66v1040c0,41.13-31.15,42-31.15,42H59.42a31.66,31.66,0,0,1-13.9-4.49,32,32,0,0,0,16.31,6.12H803.58s31.12-.85,31.12-42V72.72c0-41.19-31.12-42-31.12-42h-1.66S833.07,31.53,833.07,72.66Z"/></g><g class="cls-31"><path class="cls-32" d="M32.34,1114.29V74.3c0-41.14,31.15-42,31.15-42H806a31.66,31.66,0,0,1,13.9,4.49,32,32,0,0,0-16.31-6.12H61.83s-31.12.85-31.12,42v1041.5c0,41.19,31.12,42,31.12,42h1.66S32.34,1155.42,32.34,1114.29Z"/></g><g class="cls-33"><path class="cls-34" d="M30.69,112v970.55c.54-2,1.07-3.94,1.62-5.9V129.61Q31.48,120.82,30.69,112Z"/></g><path class="cls-35" d="M729.25,766.83C713.93,859.09,637.53,960,453.41,960c-130.13,0-219.69-71.82-263.63-174.91-41.9-98.3-19.49-238.92,60.35-315.56-8.35,22.48-.83,49.9,17.82,65s47,16.7,67.27,3.83c23.17-14.72,32.88-43.87,35-71.23S368.79,412,373,384.89c9.54-61,62.9-112.45,124.22-119.75-21.78,22.1-20,59.27-5.79,86.86s38,48.68,58.75,71.78,39.39,51,39.1,82.07c-.22,23.48-11.29,45.35-16.47,68.26s-2.23,51.12,17.7,63.53c21.77,13.57,52.18-.69,65-22.93,11.46-20,12.64-43.79,12.5-67C728.64,604.62,744.12,677.26,729.25,766.83Z"/><path class="cls-36" d="M548.17,913.91c-43.84,21.75-136.24,23.24-195.26-13.76-27-16.92-46.45-36.61-60.84-65-14.82-29.27-17.64-63.51-13.22-96s15.7-63.67,27.94-94.12c1.61,22.6,7.35,45.36,20,64.13s32.94,33.14,55.49,35.34,46.72-9.43,56.2-30c6.83-14.83,5.69-32.07,2.4-48.06s-8.58-31.64-9.7-47.92C429,586.66,444.26,554.24,470,535.53c-2.64,18.85,2.22,36.3,10.27,50.49,15.31,27,42.23,51,38.13,81.78-3.29,24.71-20.46,48.4-14,72.47,5.08,19,24.73,31.72,44.35,32.63s38.62-8.25,53.5-21.06,26.23-29.14,37.43-45.27C659.22,781.15,631.09,872.77,548.17,913.91Z"/></g></g></g></svg>