<svg xmlns="http://www.w3.org/2000/svg" viewBox="0 0 178.77 177.77"><defs><style>.cls-1{fill:#4bd139;}.cls-2{fill:#fff;}</style></defs><g id="Capa_2" data-name="Capa 2"><g id="Capa_1-2" data-name="Capa 1"><path class="cls-1" d="M89.11,0C82.52,0,54.18.41,29.61,22.3,4.21,44.94,1,74.28.47,80.59c-.59,5.12-4.1,41,22.85,69.71,24.88,26.54,57.25,27.38,62.86,27.43,6.72.21,36.6.38,62.29-22.28,29.19-25.76,30.21-60.92,30.28-66.58.15-6.94-.08-34.94-21.14-59.14C131.43-.36,94.34-.11,89.11,0Z"/><path class="cls-2" d="M49,76.87l-16.29,15,40.72,40.29,72-71.57-15-15L74.32,101.73Z"/></g></g></svg>