<svg xmlns="http://www.w3.org/2000/svg" viewBox="0 0 1142.49 1275.73"><defs><style>.cls-1{fill:#f7d63e;}.cls-2{fill:#2b2b2b;}</style></defs><g id="Capa_2" data-name="Capa 2"><g id="Objects"><path class="cls-1" d="M15.31,303.77c0,127.07,104.61,269.88,292.54,269.88H320C377.24,669.14,449.47,713.27,502,733.6c-4.49,59-26.67,91.1-71.8,134.38a43.63,43.63,0,0,0-13.56,31.45v22.76h-18A45.83,45.83,0,0,0,352.76,968v33.38H331a16.53,16.53,0,0,0-16.53,16.53v152H282.62a52.46,52.46,0,0,0-52.45,52.46v36.1H914.5v-36.1A52.46,52.46,0,0,0,862,1169.93H830.15v-152a16.53,16.53,0,0,0-16.53-16.53H791.9V968a45.83,45.83,0,0,0-45.82-45.83h-18V899.43A43.64,43.64,0,0,0,714.5,868c-45.12-43.28-67.31-75.39-71.8-134.38,52.5-20.33,124.72-64.46,181.92-159.94h12.19c187.93,0,292.55-142.81,292.55-269.88,0-42.6,2.62-85.84-40.41-127.94-31.25-30.59-77.93-39.2-121.65-39.56-13.7-.11-31.65-.23-49.88-.35V64.46S755.25,14,572.33,14,227.24,64.46,227.24,64.46v71.46c-18.22.12-36.18.24-49.88.35-43.72.36-90.39,9-121.65,39.56C12.68,217.93,15.31,261.17,15.31,303.77ZM855.73,512.69C889.29,435,913.14,331.85,916.9,195.16l16.1.13c32.78.31,67.8,6.63,91.28,28.9,32.32,30.67,30.39,62.14,30.42,93.12C1054.82,405.25,984,503.45,855.73,512.69ZM120.38,224.19c23.48-22.27,58.5-28.59,91.29-28.9l16.09-.13c3.76,136.69,27.62,239.79,61.17,317.53C160.7,503.45,89.84,405.25,90,317.31,90,286.33,88.06,254.86,120.38,224.19Z"/><path class="cls-2" d="M1141.52,263.77c-1.65-29.71-10.07-58.93-28.16-82.92a143.66,143.66,0,0,0-76.89-52.59c-30-8.45-60.4-9-91.36-9.23L933.33,119q0-11.2,0-22.41V61.94c0-4.84-2-9.33-7-10.89-21.86-6.8-44.24-12.18-66.55-17.26A1392.59,1392.59,0,0,0,693.46,6,1134.19,1134.19,0,0,0,482.73,3.89a1344.83,1344.83,0,0,0-172.55,26C281.92,36,253,42.16,225.55,51.26l-1.16.35a18,18,0,0,0-5.59,3c-4.22,2.89-7.31,7.1-7.45,12a11.45,11.45,0,0,0,0,2.55c0,17.27-.1,34.55-.15,51.84-25.38-.11-50.94-.2-75.91,4.12-31.48,5.44-62.25,17.16-86,39.11C25.13,186.56,8.48,215.72,3,248.16.63,262,.15,276.23.06,290.28,0,301.74-.16,313.26.6,324.7c2.86,43.07,16.79,85.62,39.19,122.44a289.24,289.24,0,0,0,99.29,98.71c46,27.38,99.55,41,152.89,42.46,5.7.15,11.4.19,17.1.2a424,424,0,0,0,48,63.81A385.87,385.87,0,0,0,414,703.76a360.15,360.15,0,0,0,55.09,32.86q7.58,3.66,15.32,6.92a144.09,144.09,0,0,1-7.31,33.12c-5.06,14.67-9.23,22.31-17.82,34.43A211,211,0,0,1,445.94,828c-.47.54-2.47,2.76-2.58,2.9L440.42,834q-4.43,4.65-9,9.15c-6.63,6.53-14,12.54-19.84,19.81a55,55,0,0,0-11.35,27c-.87,6.34-.69,12.94-.52,19.46-12.17.35-23.95,2.81-34.57,9.24-15.93,9.64-27.52,26.12-29.05,44.89-.56,6.79-.51,13.65-.42,20.49-2.36,0-4.7.11-7,.31-15,1.3-26.16,15.1-26.75,29.76,0,.54,0,1.1,0,1.67a26.36,26.36,0,0,0-.16,2.89v134.23c-6.9,0-13.81,0-20.71,0-21.11.17-39.8,11.35-51.77,28.38-7.64,10.87-11.75,24.82-11.89,38.05-.06,6.33,0,12.67,0,19v17.07c0,.09,0,.2,0,.29a18.23,18.23,0,0,0,.08,4.28,24.47,24.47,0,0,0,2,6.66c1.73,4.11,4.65,7.51,9.32,8.58a9.43,9.43,0,0,0,3.2.18l.26,0H888.6c8.86,0,17.95.58,26.79,0,.38,0,.77,0,1.15,0,6.23,0,10.78-8.59,10.78-13.94,0-12,.08-24.06,0-36.09-.2-30.3-16.25-58-45.29-68.9-12.16-4.57-26.12-3.68-39.08-3.59V1025.29c0-13.9-2.15-28.21-15.06-36.54-5.82-3.76-12.13-4.37-18.7-4.41.35-16.72,0-33.87-9.64-47.89-12.66-18.46-33-27-54.88-27h-4.09q0-5.89,0-11.8c-.06-11.08-2.2-21.57-7.69-31.31-4.62-8.19-11.35-14-18.13-20.32-11.2-10.37-22.06-21.21-31.55-33.2-.55-.69-1.09-1.39-1.63-2.08l-.76-1L678.9,807c-2-3-4-6-5.85-9.09q-2.4-4-4.53-8.26c-.75-1.49-1.45-3-2.18-4.51,1.52,3.13-.28-.73-.78-2a145.81,145.81,0,0,1-6.6-21c.07.2-.56-2.78-.73-3.72-.38-2.09-.71-4.19-1-6.3-.48-3.3-.86-6.62-1.17-9.94a362.39,362.39,0,0,0,44-22.52,377.46,377.46,0,0,0,57.64-42.88A415.08,415.08,0,0,0,814,614.16c5.65-7.64,11-15.49,16.16-23.48,27.36-.3,54.44-2.08,81.3-8a307.07,307.07,0,0,0,74-26.72,286,286,0,0,0,105-92.13A293.72,293.72,0,0,0,1140,336.48C1143.21,312.55,1142.85,287.82,1141.52,263.77ZM968,210.9l.5.08-.49-.08.68.13c1.53.35,3.06.68,4.58,1.06a127.5,127.5,0,0,1,13.39,4.07l2.89,1.1c-.65-.25-2.6-1.19.33.16,2.33,1.06,4.62,2.18,6.87,3.4,1.78,1,3.54,2,5.26,3.1-.23-.14,1.66,1.14,2.33,1.57l1.31,1a90.18,90.18,0,0,1,11.65,11c11.69,13.08,17.45,28.23,19.6,46.05.1.77.18,1.54.26,2.31,0,.36.1,1,.1,1.14q.23,3.09.34,6.19c.16,4.34.2,8.69.2,13,0,7.24.08,14.49-.43,21.73a179.46,179.46,0,0,1-2.46,19.45q-.87,4.74-2,9.44-.6,2.51-1.26,5c0,.08,0,.12,0,.18s-.07.23-.11.38c-.28.91-.54,1.84-.82,2.75a195.14,195.14,0,0,1-16.61,38.69q-2.49,4.43-5.21,8.73c-.85,1.35-1.73,2.7-2.62,4,.05-.06-.76,1.11-1.15,1.69l-1,1.41a199.55,199.55,0,0,1-29.79,32.94c-1.43,1.26-2.88,2.49-4.32,3.72l-1.33,1.09-1.25,1q-4.58,3.56-9.35,6.85a204.71,204.71,0,0,1-22.59,13.53c-1.74.9-3.5,1.76-5.26,2.61l-1.51.7c-1,.47-2.08.93-3.13,1.38q-6.37,2.71-12.91,5-7,2.47-14.22,4.48c-2.33.65-4.66,1.26-7,1.83-.94.23-1.9.43-2.84.67l-.57.14-1,.21c-3.15.65-6.32,1.22-9.5,1.73a669,669,0,0,0,26-81A935.69,935.69,0,0,0,928.2,271c1.94-21,3.14-42.07,3.9-63.13,5.36.07,10.72.21,16.06.59,4.73.33,9.45.81,14.15,1.48,1.86.27,3.72.59,5.57.9C966.42,210.63,967.27,210.76,968,210.9Zm-793.15,243-.38-.27c-.11-.1-.23-.19-.38-.31l-2-1.58c-1.31-1.06-2.62-2.13-3.91-3.22-3.19-2.7-6.31-5.5-9.33-8.39a203.58,203.58,0,0,1-15.17-16.19c-2.21-2.64-4.33-5.35-6.42-8.08l-.51-.68-1.2-1.67q-1.72-2.45-3.37-5a196.09,196.09,0,0,1-10.76-18.38q-2.26-4.41-4.32-8.94c-.71-1.58-1.39-3.18-2.08-4.78l-.07-.15-1-2.58a188.84,188.84,0,0,1-6.21-19.55q-1.26-4.9-2.26-9.87c-.16-.82-.43-1.71-.62-2.6a3.78,3.78,0,0,0,0-.87c-.16-1.1-.33-2.19-.48-3.29-2-14.42-1.74-29-1.42-43.53v-.06c0-.06,0-.12,0-.18.09-1.15.13-2.3.22-3.44.13-1.84.3-3.67.5-5.5s.45-3.67.74-5.5c.18-1.15.38-2.3.6-3.44.06-.28.4-1.87.58-2.73l.29-1.08c.33-1.15.68-2.29,1-3.43q.92-2.78,2-5.49c.22-.55.47-1.1.7-1.65.16-.32.74-1.6,1-2,1.24-2.34,2.58-4.61,4-6.83a67.42,67.42,0,0,1,9.59-11.82c2.2-2.27,4.5-4.36,6.85-6.46l1.12-.94c1.05-.8,2.14-1.56,3.23-2.3A90.16,90.16,0,0,1,161.36,219c17.15-5.11,33.86-6.32,51-6.69,1.82,48.15,6.17,96.25,14.28,143.76C234,399,244.35,441.44,259,482.49q1.71,4.77,3.48,9.51a231.52,231.52,0,0,1-25-6.09,210.14,210.14,0,0,1-21.58-8.14,213.25,213.25,0,0,1-21.51-11A210.89,210.89,0,0,1,174.89,453.86Zm-130-243.71c-.29.51-.73,1.23,0,0ZM242.67,551.43q-9.28-2-18.45-4.59c-2.73-.77-5.44-1.58-8.15-2.43-.09,0-2.57-.85-3-1q-2.25-.76-4.5-1.57a286.07,286.07,0,0,1-33-14.11,277.8,277.8,0,0,1-29.88-17.47c-2.26-1.52-4.5-3.08-6.72-4.66-1.19-.85-2.37-1.72-3.55-2.58l-.52-.4-1.19-.9c-4.4-3.42-8.71-6.94-12.9-10.6A276.06,276.06,0,0,1,77.37,443q-2.2-3.13-4.34-6.31c-.61-.92-1.21-1.83-1.8-2.75-.12-.21-1.46-2.31-1.72-2.73q-4-6.45-7.59-13.1a274,274,0,0,1-13.46-28.6,267.35,267.35,0,0,1-9.74-28.9c-.57-2.07-1.1-4.14-1.62-6.22-.09-.37-.29-1.21-.41-1.73-.32-1.45-.64-2.89-.94-4.34q-1.52-7.31-2.61-14.67C30,312.17,30,290.21,30.71,268.53c.05-1.39.1-2.79.17-4.18.08-1.66,0-.07,0,.23.06-.94.12-1.87.19-2.8.24-3.26.55-6.52,1-9.77a147,147,0,0,1,3.55-18.85l.57-2.09s.1-.39.2-.72c.18-.55.49-1.53.55-1.73.24-.7.48-1.4.73-2.09q1.77-5,4-9.74,1-2.11,2-4.17c.45-.89.92-1.77,1.39-2.64,1.94-3.29,4-6.48,6.28-9.58,2.12-2.93,4.36-5.78,6.72-8.52.24-.24,2-2.19,2.34-2.53,1.69-1.78,3.41-3.52,5.19-5.21,2.44-2.32,5-4.41,7.61-6.59l0,0,1.25-.9c1.67-1.18,3.38-2.32,5.11-3.41q4.22-2.67,8.63-5c1.11-.59,2.23-1.14,3.36-1.69.18,0,3.29-1.45,3.92-1.71a161.82,161.82,0,0,1,19.86-6.76c1.51-.41,3-.8,4.56-1.18l2-.46,1-.21c3.61-.73,7.24-1.4,10.88-2,7-1.09,14.14-1.86,21.25-2.36,14.57-1,29.21-.84,43.81-.94l12.36-.08c0,9.2.11,18.4.26,27.6-15.54.38-31,1.45-46.2,5.24-20.62,5.13-39.88,14.72-54.91,29.94a112.71,112.71,0,0,0-31,60.69c-3,17.34-2.81,35.81-2,53.37,2.91,65,39.09,125.16,92,162,31.88,22.19,69.78,34.88,108.27,39.09q6.69,14.9,14.24,29.37c-3.19-.18-6.48-.43-10-.75A325.25,325.25,0,0,1,242.67,551.43Zm623,635.46Zm-2.7,0h2.13c.82.06,1.64.16,2.45.26a51.83,51.83,0,0,1,8.54,1.87c.47.14,2.17.73,2.7.9l.84.36c1,.49,2,1,2.93,1.49A56.71,56.71,0,0,1,889,1196l.19.18c.47.44,1,.86,1.44,1.31q1.65,1.58,3.15,3.28c.66.74,2.58,3.44,1.53,1.85.62.93,1.25,1.86,1.83,2.83s1.2,2.33,1.88,3.44c-1.89-3.11.39,1,.8,2.17s.74,2.34,1.08,3.52c0-.08,0-.14,0-.21,0,.09,0,.18,0,.27s0,.16.07.24a5.31,5.31,0,0,1,.19,1.36.68.68,0,0,1,0,.14c.2,1.35.24,2.74.43,4.09v0c-.21,6.11,0,12.27,0,18.38v2.64H256.06c-4.35,0-8.74-.11-13.13-.18,0-5.27,0-10.55,0-15.83a57.72,57.72,0,0,1,.37-6.3l.2-1.49.06-.3c.4-1.51.8-3,1.3-4.49.29-.89,1.66-3.9.9-2.41.49-1,1-2,1.53-2.93.64-1.14,1.32-2.26,2-3.34.36-.55.74-1.09,1.13-1.63l.54-.59c2-2,3.86-4,6-5.92.44-.39.9-.75,1.35-1.1,1.43-1,2.89-1.88,4.41-2.71a55.31,55.31,0,0,1,7.19-3.25c.15-.06,1-.33,1.53-.5l.9-.22c1.55-.3,3.08-.66,4.65-.88,9.5-1.37,19.63-.55,29.18-.55h7.89a10.43,10.43,0,0,0,1.38.09H810.22c6.65,0,13.41.35,20,0h.92a9.15,9.15,0,0,0,1.3-.09C842.64,1186.9,852.79,1186.87,862.94,1186.9Zm-45.58-168.41c-.26-1.17.08-1.81,0,0Zm-.08,0c-.24-.51-.31-.69,0,0Zm-3.22,0c-.64,0,2.05.36,2.38.44l.33.12a3.09,3.09,0,0,0,.57.4c0,.24,0,.48,0,.72.35,44.23.07,88.49,0,132.73H334.44c-2.36,0-4.75,0-7.13-.09V1020l.59-.51a8.64,8.64,0,0,0,1.73-.75c.31,0,2.12-.28,2.67-.3.9,0,1.8,0,2.7,0H802.34c3.71,0,7.42,0,11.12,0Zm-52.18-77.25c.53.43,1.11.95,0,0ZM742.78,935c1.42,0,2.84.06,4.26.19,1,.09,2.05.26,3.08.39l.09,0c.83.3,1.72.47,2.57.74l2.61,1,1,.5c.76.43,1.53.85,2.28,1.3.94.56,1.83,1.19,2.74,1.79l.33.24c1.26,1.1,2.48,2.22,3.62,3.43q.9.94,1.74,2c.07.09,1.36,1.85,1.51,2a53.36,53.36,0,0,1,4.58,9.32c.09.23.16.38.2.49v0c.23.87.42,1.74.6,2.63a45.73,45.73,0,0,1,.81,6.8c.25,5.52.21,11.06.14,16.6H369.76V974c0-2,0-4.06,0-6.08,0-.59,0-3.12,0-2.78a41.43,41.43,0,0,1,2.2-10.22c-.06.17.66-1.61.89-2.26.24-.46.54-1.06.61-1.18a59.83,59.83,0,0,1,3.46-5.55c.09-.13.41-.53.7-.89.48-.5,1.64-1.76,1.57-1.7,1.09-1.09,2.25-2.08,3.43-3.07-1.34,1.16,1.71-1.2,2.62-1.73s1.54-.84,2.31-1.26L388,937l.46-.15c1.69-.57,3.41-1,5.11-1.57-4,1.26,1.54-.12,2.93-.22l1.32-.11h345ZM658.24,824.62A239,239,0,0,0,687,859.11c5.72,5.75,11.63,11.3,17.65,16.75,1.63,1.47,3.3,2.91,4.82,4.5.56.58,1.08,1.19,1.61,1.79.2.22.33.37.43.46l.13.21a34.56,34.56,0,0,1,2.56,4.36c-.66-1.22.63,2.7,1,3.41.08.57.19,1.26.21,1.46.07.7.12,1.18.14,1.49a19.39,19.39,0,0,1,0-2c0,.54,0,1.08,0,1.61v.59c0,.25,0,.27,0,.11,0,2.07,0,4.15,0,6.23v9.31H433.33c0-5.81-.08-11.62,0-17.43.12-7.48,2-12.94,6.29-18.44.11-.15.92-1.06,1.32-1.53s1.29-1.21,1.4-1.32c1.6-1.5,3.21-3,4.8-4.5q4.86-4.61,9.61-9.33c21.54-21.53,41-45.44,51.56-74.37a169.89,169.89,0,0,0,7.4-27.68,293.63,293.63,0,0,0,35,8.2,119,119,0,0,0,15.72,2,73.61,73.61,0,0,0,11-.73,224.24,224.24,0,0,0,25.46-4.64q14.67-3.49,29-8.27C635.24,777.43,643.41,802.67,658.24,824.62ZM774.32,621.85l-1.08,1.29c-1.16,1.37-2.33,2.74-3.51,4.09q-3.22,3.72-6.55,7.35a377.38,377.38,0,0,1-27.27,27q-6.64,5.92-13.56,11.53l-.59.47-3.23,2.51c-2.18,1.67-4.39,3.31-6.61,4.93q-12.93,9.45-26.71,17.66-6.35,3.78-12.83,7.27c-1.77.95-3.56,1.86-5.34,2.8l-.5.24-3.24,1.59a315.92,315.92,0,0,1-44.72,17.54q-2.45.75-4.9,1.46l-1.63.46c-2.56.65-5.12,1.32-7.7,1.92q-7.2,1.68-14.51,2.95c-4.44.75-8.89,1.28-13.36,1.75-1.75-.25-3.56-.3-5.32-.51-3.47-.41-6.93-.93-10.37-1.53l-3.33-.6-1-.19c-2.35-.51-4.71-1-7.05-1.57a296.69,296.69,0,0,1-37.08-11.51,17.48,17.48,0,0,0-2.52-1q-12.1-4.72-23.78-10.43-3.06-1.5-6.07-3l-2.51-1.3-1.28-.69q-6.51-3.54-12.86-7.36a353.6,353.6,0,0,1-53.82-39.89q-7.06-6.34-13.8-13-3.34-3.33-6.62-6.75c-1-1.07-2-2.16-3.06-3.24l-.16-.17-1.77-1.94a409.27,409.27,0,0,1-26.57-32.63,481.24,481.24,0,0,1-48.47-82.95q-2.83-6.15-5.53-12.38c-.81-1.87-1.61-3.76-2.41-5.64-.08-.2-.14-.33-.18-.44l-.27-.65c-.46-1.12-.92-2.25-1.37-3.37q-5.4-13.39-10.17-27c-6.73-19.25-12.54-38.82-17.55-58.58C259.81,361.84,252.4,314.41,248,266.78c-3.11-33.93-4.24-68.15-4.64-102.56C291.55,152,340,142.07,389.54,136.78c19.39-2.07,38.84-3.58,58.3-4.72,5.09-.3,10.73-4.81,11.39-10,.7-5.5-4.24-8-9-7.69-60.72,3.58-120.61,11.8-179.8,25.86-9.09,2.16-18.17,4.43-27.22,6.75-.1-17-.08-34-.08-51.08V73.52l4.35-1.19.91-.25,4.8-1.28q5.68-1.48,11.39-2.93,13.63-3.44,27.35-6.56A1363.6,1363.6,0,0,1,455.19,34.18,1087.32,1087.32,0,0,1,658.85,32.1Q705.68,36,752.14,43.4q20.9,3.29,41.67,7.2c3,.56,6,1.14,9,1.72l4.73.93,3.36.68q8.29,1.68,16.55,3.47,27.4,5.94,54.54,13c6.53,1.73,13,3.8,19.53,5.59,0,23.29.22,46.58.15,69.87-47.18-11.81-94.67-21.48-143.17-26.7-19.66-2.12-39.39-3.65-59.13-4.82-5.36-.31-11.15,2.57-13.29,7.71-1.85,4.47.62,9.66,5.79,10,59.54,3.51,118.41,11.35,176.47,25.1,11.11,2.63,22.17,5.43,33.21,8.3-.09,8.91-.21,17.82-.42,26.72-1.24,53-5.55,106-14.37,158.34q-2.93,17.44-6.57,34.75-1.6,7.62-3.36,15.21c-.15.62-.51,2.18-.61,2.59-.28,1.19-.57,2.39-.86,3.58-.68,2.77-1.37,5.52-2.08,8.28-5.09,19.87-11,39.54-17.83,58.88-6.12,17.34-13,34.42-20.73,51.11q-2.78,6-5.7,11.92c-.92,1.87-1.86,3.73-2.8,5.59l-.32.63c-.43.86-.89,1.7-1.34,2.55q-4.6,8.75-9.57,17.3c-.36.54-.68,1.11-1,1.69-.44.77-.88,1.54-1.34,2.3a451,451,0,0,1-25.34,38.28C783.12,610.85,778.77,616.39,774.32,621.85Zm341.44-299.44q-.63,7.63-1.73,15.2a20.66,20.66,0,0,0-.49,3.12c-.45,2.53-.94,5.07-1.46,7.59a263.67,263.67,0,0,1-8,29.7c-.77,2.32-1.58,4.64-2.43,6.94a21.84,21.84,0,0,1-1.18,3.2s1.23-3.07.51-1.35c-.36.88-.69,1.77-1,2.65q-2.89,7.17-6.2,14.16a272.64,272.64,0,0,1-15,27.51c-1.13,1.82-2.29,3.61-3.45,5.4l-1.06,1.6q-1.34,2-2.7,3.87-4.63,6.54-9.64,12.79a274.52,274.52,0,0,1-21.74,24.12c-1.88,1.86-3.81,3.66-5.72,5.48l-.48.46-.38.34c-1.23,1.09-2.45,2.18-3.69,3.25q-6.31,5.46-13,10.55a277.24,277.24,0,0,1-28.3,19q-7.53,4.41-15.33,8.35l-2.94,1.45-2.75,1.29q-4.22,1.93-8.48,3.75A292.27,292.27,0,0,1,924.48,545a304.86,304.86,0,0,1-74.19,11.42q7.59-14.19,14.35-28.81c.39-.84.77-1.69,1.16-2.54,36.78-3.24,73-14.06,104.65-33.3a216.48,216.48,0,0,0,70.37-69.48,200.29,200.29,0,0,0,29.73-84.57,267.53,267.53,0,0,0,.49-47.61c-1.45-20.09-6.39-39.28-18.15-56-15-21.22-36.16-35.82-60.85-43.48-19.38-6-39.21-7.48-59.24-7.92q.3-14.85.41-29.71c24.69-.1,49.58-.3,73.94,3.48,26.13,4.05,52.65,13.54,72.17,31.56a118.07,118.07,0,0,1,15,16.54q3.24,4.37,6.11,9c1,1.59,1.93,3.21,2.84,4.85.27.49,1.58,3,1.67,3.19a118,118,0,0,1,6.86,18.28c.07.22.3,1,.45,1.58.07.25.12.48.14.54.31,1.39.62,2.79.9,4.19.65,3.24,1.18,6.5,1.61,9.77q.6,4.53,1,9.08.21,2.45.36,4.89c0,.7.08,1.39.11,2.09,0,.14,0,.57.06,1s0,1.18.05,1.42c0,.7,0,1.39,0,2.09,0,1.4.06,2.79.08,4.19q.06,4.88,0,9.75C1116.58,301.13,1116.63,311.78,1115.76,322.41Z"/><path class="cls-2" d="M968,210.9l-.16,0,.17,0Z"/><path class="cls-2" d="M715.57,893.76c0-.06,0-.14,0-.22a2.63,2.63,0,0,0,0,.33Z"/><path class="cls-2" d="M901.2,1216.22c-.08-.53-.19-1.06-.26-1.6l0-.06C901.1,1216.25,901.19,1216.51,901.2,1216.22Z"/></g></g></svg>