<svg xmlns="http://www.w3.org/2000/svg" viewBox="0 0 575.45 706.51"><defs><style>.cls-1{fill:#e0343d;stroke:#000;stroke-miterlimit:10;stroke-width:10px;}.cls-2{fill:#f99653;}</style></defs><g id="Capa_2" data-name="Capa 2"><g id="Capa_1-2" data-name="Capa 1"><g id="Capa_2-2" data-name="Capa 2"><g id="Capa_1-2-2" data-name="Capa 1-2"><g id="Capa_2-2-2" data-name="Capa 2-2"><g id="Objects"><path class="cls-1" d="M565.19,508.34c-15.32,92.31-91.72,193.17-275.84,193.17-130.13,0-219.69-71.86-263.63-174.86C-16.18,428.3,6.23,287.65,86.07,211c-8.35,22.48-.83,49.9,17.82,65s47,16.7,67.27,3.83c23.17-14.72,32.88-43.87,35-71.23s-1.43-55.13,2.78-82.24C218.48,65.4,271.84,14,333.16,6.65c-21.78,22.1-20,59.27-5.79,86.86s38,48.68,58.75,71.78,39.39,51,39.1,82.07c-.22,23.48-11.29,45.35-16.47,68.26s-2.23,51.12,17.7,63.53c21.77,13.57,52.18-.69,65-22.93,11.46-20,12.64-43.79,12.5-67C564.58,346.13,580.06,418.77,565.19,508.34Z"/><path class="cls-2" d="M384.11,655.42c-43.84,21.75-136.24,23.23-195.26-13.77-27-16.92-46.45-36.61-60.84-65-14.82-29.27-17.64-63.51-13.22-96s15.7-63.67,27.94-94.12c1.61,22.6,7.35,45.36,20,64.13S195.67,483.8,218.22,486s46.72-9.43,56.2-30c6.83-14.83,5.69-32.07,2.4-48.06s-8.58-31.64-9.7-47.92c-2.18-31.86,13.08-64.28,38.82-83-2.64,18.85,2.22,36.3,10.27,50.49,15.31,27,42.23,51,38.13,81.78-3.29,24.71-20.46,48.4-14,72.47,5.08,19,24.73,31.72,44.35,32.63s38.62-8.25,53.5-21.06,26.23-29.14,37.43-45.27C495.16,522.65,467,614.28,384.11,655.42Z"/></g></g></g></g></g></g></svg>