<svg xmlns="http://www.w3.org/2000/svg" viewBox="0 0 565.45 694.86"><defs><style>.cls-1{fill:#e0343d;}.cls-2{fill:#f99653;}</style></defs><g id="Capa_2" data-name="Capa 2"><g id="Capa_1-2" data-name="Capa 1"><g id="Capa_2-2" data-name="Capa 2"><g id="Objects"><path class="cls-1" d="M560.19,501.69C544.87,594,468.47,694.86,284.35,694.86,154.22,694.86,64.66,623,20.72,520-21.18,421.65,1.23,281,81.07,204.39c-8.35,22.48-.83,49.9,17.82,65s47,16.7,67.27,3.83c23.17-14.72,32.88-43.87,35-71.23s-1.43-55.13,2.78-82.24C213.48,58.75,266.84,7.3,328.16,0c-21.78,22.1-20,59.27-5.79,86.86s38,48.68,58.75,71.78,39.39,51,39.1,82.07c-.22,23.48-11.29,45.35-16.47,68.26s-2.23,51.12,17.7,63.53c21.77,13.57,52.18-.69,65-22.93,11.46-20,12.64-43.79,12.5-67C559.58,339.48,575.06,412.12,560.19,501.69Z"/><path class="cls-2" d="M379.11,648.77C335.27,670.52,242.87,672,183.85,635c-27-16.92-46.45-36.61-60.84-65-14.82-29.27-17.64-63.51-13.22-96s15.7-63.67,27.94-94.12c1.61,22.6,7.35,45.36,20,64.13s32.94,33.14,55.49,35.34,46.72-9.43,56.2-30c6.83-14.83,5.69-32.07,2.4-48.06s-8.58-31.64-9.7-47.92c-2.18-31.86,13.08-64.28,38.82-83-2.64,18.85,2.22,36.3,10.27,50.49,15.31,27,42.23,51,38.13,81.78-3.29,24.71-20.46,48.4-14,72.47,5.08,19,24.73,31.72,44.35,32.63s38.62-8.25,53.5-21.06,26.23-29.14,37.43-45.27C490.16,516,462,607.63,379.11,648.77Z"/></g></g></g></g></svg>