<svg xmlns="http://www.w3.org/2000/svg" viewBox="0 0 777.29 499.09"><defs><style>.cls-1{fill:#ffe100;}.cls-2{fill:gold;}.cls-3{fill:#fc0;}</style></defs><g id="Capa_2" data-name="Capa 2"><g id="Object"><polygon class="cls-1" points="762.7 274.46 762.7 134.15 741.27 141.41 741.27 274.46 762.7 274.46"/><path d="M633.86,217.62,393.84,299a21.15,21.15,0,0,1-13.7,0l-240-81.39V418.91h.26l-.55,2.77c0,23.94,110.68,77.41,247,77.41s246.73-53.47,246.73-77.41l-.57-2.77h.85Z"/><polygon points="140.12 177.85 387 261.56 633.86 177.85 741.27 141.41 762.7 134.15 773.98 130.32 387 0 0 130.32 140.12 177.85"/><path class="cls-2" d="M726.68,307.34v81.91a25.31,25.31,0,1,0,50.61,0V307.34A25.28,25.28,0,0,0,770,289.58H734A25.29,25.29,0,0,0,726.68,307.34Z"/><polygon class="cls-3" points="730.74 274.46 730.74 289.58 733.98 289.58 770.01 289.58 773.22 289.58 773.22 274.46 762.7 274.46 741.27 274.46 730.74 274.46"/></g></g></svg>